<svg width="278" height="57" viewBox="0 0 278 57" fill="none" xmlns="http://www.w3.org/2000/svg">
<g filter="url(#filter0_i_17_375)">
<path d="M39.6163 39.2816C36.3428 39.2816 33.2553 37.1613 30.3539 32.9207C29.0891 30.9864 27.4152 27.7129 25.3321 23.1003C25.704 28.4569 24.4765 32.9951 21.6494 36.7149C18.3015 41.1043 13.2798 43.2247 6.58403 43.0759C4.8729 43.0015 3.38496 42.2203 2.12021 40.7324C0.855459 39.3188 0.185886 37.6449 0.111488 35.7106C0.0370916 33.3299 0.781061 30.54 2.3434 27.3409C2.64099 26.7457 2.93857 26.4109 3.23616 26.3365C3.60815 26.3365 3.79414 26.5969 3.79414 27.1177C3.79414 29.9448 3.86854 31.5815 4.01733 32.0279C4.46371 32.9207 5.76566 33.3671 7.92317 33.3671C11.7918 33.3671 15.1397 32.4743 17.9668 30.6888C21.1658 28.6057 22.7654 25.9274 22.7654 22.6539C22.7654 21.5379 22.319 19.1944 21.4262 15.6234C20.5335 11.9779 19.6779 9.18804 18.8595 7.25372C18.7851 5.31939 18.7851 3.79426 18.8595 2.6783C19.0083 0.892775 19.3059 1.14441e-05 19.7523 1.14441e-05C20.1987 1.14441e-05 20.7938 0.855577 21.5378 2.56671C23.8441 7.92329 26.1132 13.2799 28.3451 18.6365C32.1394 26.1505 35.8964 30.0192 39.6163 30.2424V39.2816ZM43.3727 39.2816H38.4625V30.2424H43.3727V39.2816ZM46.0977 39.2816H41.1875V30.2424H46.0977V39.2816ZM48.8227 39.2816H43.9125V30.2424H48.8227V39.2816ZM51.5477 39.2816H46.6375V30.2424H51.5477V39.2816ZM54.2727 39.2816H49.3625V30.2424H54.2727V39.2816ZM56.9977 39.2816H52.0875V30.2424H56.9977V39.2816ZM59.7227 39.2816H54.8125V30.2424H59.7227V39.2816ZM62.4477 39.2816H57.5375V30.2424H62.4477V39.2816ZM65.1727 39.2816H60.2625V30.2424H65.1727V39.2816ZM67.8977 39.2816H62.9875V30.2424H67.8977V39.2816ZM70.6227 39.2816H65.7125V30.2424H70.6227V39.2816ZM73.3477 39.2816H68.4375V30.2424H73.3477V39.2816ZM76.0727 39.2816H71.1625V30.2424H76.0727V39.2816ZM78.7977 39.2816H73.8875V30.2424H78.7977V39.2816ZM81.5227 39.2816H76.6125V30.2424H81.5227V39.2816ZM84.2477 39.2816H79.3375V30.2424H84.2477V39.2816ZM92.9988 26.3365C92.9988 29.9076 92.2921 33.1811 90.8785 36.1569C89.9113 38.2401 87.3447 39.2816 83.1784 39.2816V30.2424C86.6007 30.2424 88.4606 29.3496 88.7582 27.5641C88.3118 26.2993 87.4934 24.8486 86.3031 23.2119C85.4103 21.9471 84.8524 20.608 84.6292 19.1944C85.0755 17.6321 85.8939 15.549 87.0843 12.9451C88.0514 12.4987 89.1302 13.3543 90.3205 15.5118C91.6597 18.0413 92.5524 21.6495 92.9988 26.3365ZM101.257 46.3121C101.257 46.9073 100.922 48.0233 100.253 49.66C99.5086 51.8175 98.653 52.9335 97.6858 53.0079C96.7931 52.9335 95.6771 52.3011 94.338 51.1107C92.9988 49.9204 92.1061 48.8788 91.6597 47.9861C93.0732 43.9686 94.3008 41.7367 95.3423 41.2903C95.7143 41.2903 96.7559 41.8855 98.467 43.0759C100.178 44.3406 101.108 45.4194 101.257 46.3121ZM90.5437 50.218C90.6925 50.8131 90.4321 52.0407 89.7626 53.9006C89.1674 55.7605 88.5722 56.6905 87.977 56.6905C87.3075 56.6905 86.0427 56.0953 84.1828 54.905C82.3229 53.789 81.3557 52.9335 81.2813 52.3383C80.8349 51.5199 81.8765 49.2136 84.406 45.4194C86.2659 46.2377 88.3118 47.8373 90.5437 50.218ZM140.666 39.2816C137.393 39.2816 134.305 37.1613 131.404 32.9207C130.139 30.9864 128.465 27.7129 126.382 23.1003C126.754 28.4569 125.527 32.9951 122.699 36.7149C119.352 41.1043 114.33 43.2247 107.634 43.0759C105.923 43.0015 104.435 42.2203 103.17 40.7324C101.905 39.3188 101.236 37.6449 101.161 35.7106C101.087 33.3299 101.831 30.54 103.393 27.3409C103.691 26.7457 103.989 26.4109 104.286 26.3365C104.658 26.3365 104.844 26.5969 104.844 27.1177C104.844 29.9448 104.919 31.5815 105.067 32.0279C105.514 32.9207 106.816 33.3671 108.973 33.3671C112.842 33.3671 116.19 32.4743 119.017 30.6888C122.216 28.6057 123.815 25.9274 123.815 22.6539C123.815 21.5379 123.369 19.1944 122.476 15.6234C121.583 11.9779 120.728 9.18804 119.91 7.25372C119.835 5.31939 119.835 3.79426 119.91 2.6783C120.058 0.892775 120.356 1.14441e-05 120.802 1.14441e-05C121.249 1.14441e-05 121.844 0.855577 122.588 2.56671C124.894 7.92329 127.163 13.2799 129.395 18.6365C133.189 26.1505 136.946 30.0192 140.666 30.2424V39.2816ZM144.423 39.2816H139.512V30.2424H144.423V39.2816ZM147.148 39.2816H142.237V30.2424H147.148V39.2816ZM149.873 39.2816H144.962V30.2424H149.873V39.2816ZM152.598 39.2816H147.687V30.2424H152.598V39.2816ZM155.323 39.2816H150.412V30.2424H155.323V39.2816ZM158.048 39.2816H153.137V30.2424H158.048V39.2816ZM160.773 39.2816H155.862V30.2424H160.773V39.2816ZM163.498 39.2816H158.587V30.2424H163.498V39.2816ZM166.223 39.2816H161.312V30.2424H166.223V39.2816ZM168.948 39.2816H164.037V30.2424H168.948V39.2816ZM171.673 39.2816H166.762V30.2424H171.673V39.2816ZM174.398 39.2816H169.487V30.2424H174.398V39.2816ZM177.123 39.2816H172.212V30.2424H177.123V39.2816ZM179.848 39.2816H174.937V30.2424H179.848V39.2816ZM182.573 39.2816H177.662V30.2424H182.573V39.2816ZM185.298 39.2816H180.387V30.2424H185.298V39.2816ZM188.023 39.2816H183.112V30.2424H188.023V39.2816ZM190.748 39.2816H185.837V30.2424H190.748V39.2816ZM193.473 39.2816H188.562V30.2424H193.473V39.2816ZM196.198 39.2816H191.287V30.2424H196.198V39.2816ZM198.923 39.2816H194.012V30.2424H198.923V39.2816ZM201.648 39.2816H196.737V30.2424H201.648V39.2816ZM204.373 39.2816H199.462V30.2424H204.373V39.2816ZM207.098 39.2816H202.187V30.2424H207.098V39.2816ZM209.823 39.2816H204.912V30.2424H209.823V39.2816ZM212.548 39.2816H207.637V30.2424H212.548V39.2816ZM215.273 39.2816H210.362V30.2424H215.273V39.2816ZM217.998 39.2816H213.087V30.2424H217.998V39.2816ZM220.723 39.2816H215.812V30.2424H220.723V39.2816ZM275.34 25.8902C275.116 26.5597 274.67 27.0433 274 27.3409C272.959 27.6385 270.987 27.6385 268.086 27.3409C264.143 26.9689 261.539 26.7829 260.274 26.7829C257.745 26.7829 251.57 28.866 241.749 33.0323C231.929 37.1985 224.564 39.2816 219.653 39.2816V30.2424C225.233 30.2424 231.408 29.1636 238.178 27.0061C242.716 25.5926 246.25 24.179 248.78 22.7655C246.102 22.2447 243.46 21.4635 240.857 20.422C238.699 19.5292 237.1 19.0828 236.058 19.0828C235.165 19.0828 233.826 19.3804 232.041 19.9756C229.883 20.7196 227.354 21.2403 224.452 21.5379C224.08 21.6123 223.857 21.4635 223.782 21.0916C223.708 20.794 223.782 20.3848 224.006 19.864C224.675 17.7809 225.94 15.0282 227.8 11.6059C230.999 9.59722 233.528 8.55566 235.388 8.48127C237.397 8.63006 239.108 9.00205 240.522 9.59722C242.754 10.7876 245.023 11.9779 247.329 13.1683C250.454 14.805 255.104 16.4045 261.279 17.9669C267.9 19.6036 272.736 20.3104 275.786 20.0872C276.53 20.0128 276.976 20.05 277.125 20.1988C277.274 20.2732 277.311 20.4592 277.237 20.7568C277.088 21.0544 276.976 21.2403 276.902 21.3147C276.902 21.3891 276.381 22.9143 275.34 25.8902Z" fill="white"/>
</g>
<defs>
<filter id="filter0_i_17_375" x="0" y="0" width="277.348" height="57.6905" filterUnits="userSpaceOnUse" color-interpolation-filters="sRGB">
<feFlood flood-opacity="0" result="BackgroundImageFix"/>
<feBlend mode="normal" in="SourceGraphic" in2="BackgroundImageFix" result="shape"/>
<feColorMatrix in="SourceAlpha" type="matrix" values="0 0 0 0 0 0 0 0 0 0 0 0 0 0 0 0 0 0 127 0" result="hardAlpha"/>
<feOffset dy="1"/>
<feGaussianBlur stdDeviation="0.5"/>
<feComposite in2="hardAlpha" operator="arithmetic" k2="-1" k3="1"/>
<feColorMatrix type="matrix" values="0 0 0 0 0 0 0 0 0 0 0 0 0 0 0 0 0 0 0.2 0"/>
<feBlend mode="normal" in2="shape" result="effect1_innerShadow_17_375"/>
</filter>
</defs>
</svg>
